<svg xmlns="http://www.w3.org/2000/svg" xmlns:xlink="http://www.w3.org/1999/xlink" version="1.1" width="256" height="256" viewBox="0 0 256 256" xml:space="preserve">

<defs>
</defs>
<g style="stroke: none; stroke-width: 0; stroke-dasharray: none; stroke-linecap: butt; stroke-linejoin: miter; stroke-miterlimit: 10; fill: none; fill-rule: nonzero; opacity: 1;" transform="translate(1.4065934065934016 1.4065934065934016) scale(2.81 2.81)" >
	<path d="M 85.033 90 C 87.775 90 90 87.776 90 85.032 V 4.967 C 90 2.223 87.776 0 85.033 0 H 4.968 C 2.224 0 0 2.223 0 4.967 v 80.065 C 0 87.775 2.223 90 4.968 90 H 85.033 z" style="stroke: none; stroke-width: 1; stroke-dasharray: none; stroke-linecap: butt; stroke-linejoin: miter; stroke-miterlimit: 10; fill: rgb(60,90,153); fill-rule: nonzero; opacity: 1;" transform=" matrix(1 0 0 1 0 0) " stroke-linecap="round" />
	<path d="M 49.645 75 V 47.631 h 9.186 l 1.376 -10.666 H 49.645 v -6.81 c 0 -3.088 0.858 -5.193 5.286 -5.193 l 5.648 -0.002 v -9.54 c -0.977 -0.13 -4.33 -0.42 -8.23 -0.42 c -8.143 0 -13.718 4.971 -13.718 14.099 v 7.866 h -9.21 v 10.666 h 9.21 V 75 H 49.645 z" style="stroke: none; stroke-width: 1; stroke-dasharray: none; stroke-linecap: butt; stroke-linejoin: miter; stroke-miterlimit: 10; fill: rgb(255,255,255); fill-rule: nonzero; opacity: 1;" transform=" matrix(1 0 0 1 0 0) " stroke-linecap="round" />
</g>
</svg>