<?xml version="1.0" standalone="no"?>
<!DOCTYPE svg PUBLIC "-//W3C//DTD SVG 20010904//EN"
 "http://www.w3.org/TR/2001/REC-SVG-20010904/DTD/svg10.dtd">
<svg version="1.0" xmlns="http://www.w3.org/2000/svg"
 width="500.000000pt" height="500.000000pt" viewBox="0 0 500.000000 500.000000"
 preserveAspectRatio="xMidYMid meet">
<metadata>
Created by potrace 1.14, written by Peter Selinger 2001-2017
</metadata>
<g transform="translate(0.000000,500.000000) scale(0.100000,-0.100000)"
fill="#000000" stroke="none">
<path d="M2185 3886 c-11 -8 -63 -77 -115 -155 l-95 -141 -288 0 c-285 0 -288
0 -309 -22 -47 -50 -508 -734 -508 -755 0 -55 -41 -53 864 -53 l833 0 20 23
c18 18 226 319 575 829 40 59 76 106 80 105 4 -1 140 -195 302 -432 359 -525
359 -525 391 -525 29 0 65 32 65 59 0 10 -38 74 -84 142 -47 68 -123 180 -169
249 -47 69 -113 166 -148 215 -110 160 -191 278 -247 360 -87 128 -16 115
-621 115 -433 0 -530 -2 -546 -14z m473 -123 c-231 -2 -388 -7 -388 -13 0 -14
18 -22 25 -10 4 6 139 10 386 10 246 0 379 4 379 10 0 6 6 10 13 10 6 -1 1
-10 -12 -21 -14 -11 -25 -30 -26 -42 -2 -12 -8 -21 -15 -19 -10 2 -11 0 -2
-11 7 -8 9 -17 5 -21 -4 -3 -8 -13 -9 -20 -4 -27 -36 -65 -64 -74 -16 -6 -34
-20 -40 -32 -17 -31 -5 -36 15 -7 9 14 22 28 30 31 7 2 -4 -21 -26 -52 -22
-31 -44 -58 -50 -58 -5 -1 -16 -2 -24 -3 -8 0 -15 -6 -15 -11 0 -6 -10 -24
-21 -40 -12 -16 -19 -36 -16 -44 8 -19 -1 -46 -15 -46 -5 0 -6 6 -3 13 4 6
-10 -6 -29 -28 -20 -22 -36 -44 -36 -50 0 -5 14 6 31 25 16 19 27 28 22 19
-11 -22 -158 -238 -183 -269 l-21 -25 13 30 c7 17 18 36 25 43 21 22 15 26 -9
6 -21 -19 -21 -19 -16 4 4 13 2 20 -4 16 -5 -3 -6 -20 -3 -37 4 -22 3 -28 -3
-18 -7 10 -9 4 -8 -20 3 -45 -2 -59 -20 -52 -9 3 -12 0 -9 -8 3 -8 0 -21 -5
-29 -10 -16 -16 -10 -72 77 -24 37 -25 43 -12 60 14 17 15 16 10 -9 -6 -27 -1
-35 49 -77 14 -11 19 -11 25 -1 5 8 13 9 21 4 11 -6 11 -4 0 10 -11 13 -16 14
-23 4 -8 -10 -11 -10 -15 0 -2 6 -13 12 -24 12 -10 0 -19 5 -19 11 0 7 10 9
25 5 14 -4 25 -2 25 4 0 5 -3 9 -7 9 -32 -5 -45 2 -41 24 3 17 0 23 -14 24
-11 1 -22 -5 -25 -13 -7 -20 -24 -5 -65 59 -18 29 -57 85 -86 125 -34 46 -51
79 -48 89 4 9 -1 27 -9 40 -9 13 -14 27 -11 32 8 13 -30 43 -50 39 -20 -3 -76
70 -66 87 4 5 8 2 10 -7 5 -26 22 -22 22 5 0 12 7 31 15 41 8 11 15 25 15 30
0 6 -9 -4 -20 -21 -11 -18 -24 -33 -30 -33 -5 0 3 17 18 39 15 21 31 36 36 33
5 -3 7 2 3 11 -3 9 -2 19 2 22 5 3 25 30 46 60 l36 55 397 -2 397 -3 -387 -2z
m436 -21 c-9 -16 -24 -39 -35 -53 l-18 -24 3 30 c2 17 8 29 14 28 5 -1 15 9
22 22 7 14 17 25 22 25 5 0 2 -13 -8 -28z m-1224 -283 c0 -8 -59 -10 -195 -7
-107 1 -195 0 -195 -4 0 -5 -10 -8 -22 -8 -21 0 -21 0 -2 15 15 11 59 14 217
15 136 0 197 -3 197 -11z m-173 -19 c140 0 162 -2 157 -15 -5 -13 -34 -15
-183 -13 l-176 2 175 6 175 5 -168 5 c-93 3 -171 2 -174 -2 -2 -5 -13 -8 -23
-8 -10 0 -21 -4 -24 -8 -2 -4 41 -9 97 -11 56 -1 105 -7 108 -13 4 -7 9 -7 13
1 4 6 27 11 51 11 38 0 44 -3 39 -17 -5 -16 -3 -15 10 1 9 11 19 17 22 13 4
-4 1 -13 -6 -22 -7 -8 -8 -15 -4 -15 5 0 15 9 22 20 7 11 17 20 23 20 6 0 3
-7 -5 -16 -9 -8 -21 -25 -27 -36 -9 -17 -13 -18 -21 -7 -7 10 -8 8 -3 -8 4
-14 0 -28 -12 -40 -10 -10 -29 -35 -42 -56 -12 -21 -27 -34 -33 -31 -7 4 -8 2
-4 -4 4 -7 2 -17 -4 -24 -5 -7 -41 -59 -79 -116 -38 -57 -72 -102 -75 -100 -4
2 -16 -16 -26 -39 l-19 -43 -212 0 c-187 0 -210 2 -199 15 14 17 35 21 25 5
-5 -7 55 -10 184 -10 162 1 192 4 203 18 11 13 11 14 -1 8 -8 -5 -17 -3 -22 5
-7 11 -9 10 -9 -3 0 -16 -15 -18 -170 -18 -107 0 -170 4 -170 10 0 6 13 10 29
10 16 0 34 7 41 15 14 17 21 65 9 65 -5 0 -9 -10 -9 -23 0 -13 -5 -28 -12 -35
-15 -15 -48 -16 -48 0 0 6 -7 3 -16 -8 -15 -19 -15 -19 -5 1 5 11 19 20 32 20
16 0 25 8 30 30 8 28 7 29 -6 11 -8 -11 -15 -24 -15 -29 0 -4 -5 -5 -10 -2 -9
5 45 95 57 95 2 0 1 -12 -3 -27 -6 -27 -6 -27 9 -8 8 11 13 24 10 28 -3 5 3
14 13 21 11 8 13 15 6 20 -6 4 20 51 69 124 44 64 95 138 112 164 22 32 39 48
54 48 12 0 25 5 29 11 3 6 16 8 28 5 11 -3 94 -6 183 -6z m511 -52 c31 -57 21
-59 -18 -4 -19 28 -26 46 -18 46 7 0 23 -19 36 -42z m642 -3 c-17 -25 -33 -45
-36 -45 -10 0 8 40 29 65 36 41 40 28 7 -20z m-777 -57 c31 -46 110 -162 176
-258 l121 -175 -357 -3 c-196 -1 -358 0 -360 2 -3 2 14 30 37 63 57 80 141
202 234 338 43 63 82 115 86 115 4 0 32 -37 63 -82z"/>
<path d="M2230 3721 c0 -5 -6 -16 -12 -23 -20 -22 -39 -58 -30 -58 4 0 15 12
25 28 15 23 17 24 12 5 -4 -15 -2 -23 6 -23 7 0 10 10 6 29 -3 15 -1 33 6 40
8 8 8 11 -1 11 -7 0 -12 -4 -12 -9z"/>
<path d="M2970 3626 c6 -6 5 -15 -1 -23 -7 -8 -8 -13 -1 -13 5 0 16 10 24 23
14 21 14 22 -8 22 -14 0 -19 -4 -14 -9z"/>
<path d="M2219 3623 c-1 -5 -1 -11 0 -15 0 -5 -4 -8 -11 -8 -6 0 -9 -2 -6 -5
9 -9 38 7 38 21 0 14 -19 20 -21 7z"/>
<path d="M2147 3541 c-2 -10 -1 -25 4 -32 6 -10 9 -6 9 14 0 19 4 26 12 21 7
-4 8 -3 4 4 -11 18 -23 14 -29 -7z"/>
<path d="M2886 3544 c-9 -24 -2 -26 12 -4 7 11 8 20 3 20 -5 0 -12 -7 -15 -16z"/>
<path d="M2130 3491 c0 -6 4 -13 10 -16 6 -3 7 1 4 9 -7 18 -14 21 -14 7z"/>
<path d="M2223 3485 c0 -8 4 -15 9 -15 4 0 8 7 8 15 0 8 -4 15 -8 15 -5 0 -9
-7 -9 -15z"/>
<path d="M2865 3480 c-3 -5 -18 -8 -33 -6 -15 2 -21 1 -14 -1 6 -2 12 -9 12
-15 0 -5 -7 -7 -16 -4 -12 5 -15 2 -10 -10 4 -9 1 -23 -5 -30 -10 -12 -9 -13
5 -8 9 3 16 10 16 15 0 10 52 59 63 59 4 0 5 -5 1 -12 -4 -7 -3 -8 4 -4 7 4
12 11 12 17 0 12 -27 12 -35 -1z"/>
<path d="M2190 3471 c0 -13 28 -33 41 -29 6 2 0 12 -15 21 -14 10 -26 13 -26
8z"/>
<path d="M2232 3410 c0 -14 2 -19 5 -12 2 6 2 18 0 25 -3 6 -5 1 -5 -13z"/>
<path d="M2337 3403 c-12 -11 -8 -21 12 -26 14 -3 17 0 14 14 -5 20 -15 24
-26 12z"/>
<path d="M2710 3391 c0 -5 7 -11 15 -15 9 -3 15 0 15 9 0 8 -7 15 -15 15 -8 0
-15 -4 -15 -9z"/>
<path d="M2264 3342 c4 -13 3 -22 -3 -22 -6 0 3 -22 20 -48 28 -45 32 -48 62
-43 l32 6 -32 3 c-18 2 -33 7 -33 12 0 5 7 7 16 3 15 -6 15 -4 0 19 -9 14 -16
30 -15 34 3 20 -2 35 -10 29 -5 -3 -17 3 -27 12 -16 16 -16 16 -10 -5z m34
-33 c-11 -8 -11 -11 1 -18 7 -5 12 -14 9 -21 -2 -8 -11 -2 -21 14 -20 29 -15
48 9 39 13 -5 13 -7 2 -14z"/>
<path d="M2752 3338 c2 -16 -2 -23 -12 -22 -9 1 -16 -9 -17 -25 l-1 -26 21 29
c22 31 30 66 15 66 -5 0 -8 -10 -6 -22z"/>
<path d="M2386 3285 c4 -8 8 -15 10 -15 2 0 4 7 4 15 0 8 -4 15 -10 15 -5 0
-7 -7 -4 -15z"/>
<path d="M2565 3230 c3 -5 8 -10 11 -10 2 0 4 5 4 10 0 6 -5 10 -11 10 -5 0
-7 -4 -4 -10z"/>
<path d="M2633 3224 c-3 -9 1 -28 10 -43 10 -18 13 -32 7 -41 -19 -29 -10 -31
13 -3 22 29 47 69 47 78 0 2 -7 2 -15 -1 -8 -4 -15 -15 -15 -25 0 -10 -4 -19
-10 -19 -16 0 -11 37 7 56 13 13 14 16 3 12 -8 -2 -21 -15 -28 -29 l-14 -24 6
28 c7 29 -1 37 -11 11z"/>
<path d="M2376 3195 c4 -15 2 -25 -5 -25 -6 0 -11 9 -11 20 0 11 -6 20 -14 20
-13 0 -13 -4 0 -27 20 -39 54 -80 54 -66 0 6 -4 15 -10 18 -5 3 -10 11 -10 16
0 6 4 8 8 5 5 -3 7 5 6 17 -1 12 -3 28 -3 35 -1 6 -6 12 -11 12 -6 0 -8 -11
-4 -25z"/>
<path d="M2561 3194 c0 -11 3 -14 6 -6 3 7 2 16 -1 19 -3 4 -6 -2 -5 -13z"/>
<path d="M2596 3144 c-20 -14 -16 -26 8 -30 15 -2 29 33 17 40 -3 2 -15 -2
-25 -10z"/>
<path d="M2505 2944 c9 -9 19 -13 23 -10 3 4 0 11 -8 16 -24 15 -33 11 -15 -6z"/>
<path d="M1423 3393 c-3 -10 -15 -30 -25 -45 -11 -16 -16 -28 -11 -28 4 0 14
9 21 20 7 12 16 19 20 16 4 -2 7 9 8 25 1 33 -4 37 -13 12z"/>
<path d="M1422 3330 c0 -8 4 -26 8 -40 6 -20 8 -21 8 -5 0 11 -3 29 -8 40 -5
12 -8 14 -8 5z"/>
<path d="M1674 3315 c-13 -19 -14 -28 -5 -39 8 -10 9 -16 1 -21 -17 -11 -11
-34 9 -32 11 1 17 6 13 12 -13 21 -10 65 5 65 10 0 12 -6 7 -22 -6 -19 -3 -18
23 7 l30 30 -25 12 c-34 18 -39 17 -58 -12z m46 5 c8 -5 11 -12 7 -16 -4 -4
-15 0 -24 9 -18 18 -8 23 17 7z"/>
<path d="M1350 3280 c0 -5 -8 -17 -19 -27 -23 -22 -37 -63 -22 -63 6 0 11 11
11 25 0 14 5 25 10 25 15 0 12 -33 -6 -58 -14 -20 -14 -22 3 -19 10 1 19 -2
20 -8 2 -5 -6 -10 -17 -10 -10 0 -23 -5 -27 -9 -4 -5 -3 -6 4 -3 6 4 13 2 15
-4 2 -6 13 -3 28 9 19 16 22 23 13 34 -7 8 -10 35 -8 66 2 29 2 52 -1 52 -2 0
-4 -4 -4 -10z"/>
<path d="M1387 3259 c-20 -12 -14 -29 10 -29 9 0 13 3 10 7 -4 3 -2 12 4 20
13 15 1 17 -24 2z"/>
<path d="M1590 3255 c0 -8 7 -15 15 -15 8 0 15 7 15 15 0 8 -7 15 -15 15 -8 0
-15 -7 -15 -15z"/>
<path d="M1393 3193 c-3 -10 -8 -21 -10 -25 -2 -4 3 -5 11 -2 9 3 16 15 16 25
0 24 -9 25 -17 2z"/>
<path d="M1262 3150 c-24 -31 -28 -45 -12 -35 6 3 10 -1 10 -9 0 -25 15 -26
16 0 1 13 -2 21 -7 18 -19 -11 -8 16 12 29 11 8 16 17 11 21 -5 3 -19 -8 -30
-24z"/>
<path d="M1622 3148 c-6 -7 -13 -27 -17 -43 -6 -28 -5 -28 15 8 21 39 23 59 2
35z"/>
<path d="M1426 3102 c-3 -5 1 -9 9 -9 8 0 12 4 9 9 -3 4 -7 8 -9 8 -2 0 -6 -4
-9 -8z"/>
<path d="M1500 3070 c0 -5 4 -10 9 -10 6 0 13 5 16 10 3 6 -1 10 -9 10 -9 0
-16 -4 -16 -10z"/>
<path d="M1537 3065 c-15 -11 -17 -17 -7 -35 9 -17 14 -19 26 -9 8 6 14 16 14
21 0 6 -7 5 -15 -2 -12 -10 -15 -10 -15 3 0 8 6 17 13 20 6 2 10 7 7 10 -3 3
-13 -1 -23 -8z"/>
<path d="M1578 3063 c7 -3 16 -2 19 1 4 3 -2 6 -13 5 -11 0 -14 -3 -6 -6z"/>
<path d="M1450 3000 c-13 -9 -13 -11 -1 -19 9 -6 11 -16 7 -27 -5 -14 -4 -16
4 -8 6 6 10 23 8 38 -2 20 -6 23 -18 16z"/>
<path d="M1525 2989 c-4 -6 -5 -12 -2 -15 2 -3 7 2 10 11 7 17 1 20 -8 4z"/>
<path d="M1917 3143 c-11 -10 -8 -33 4 -33 6 0 9 7 5 15 -9 25 8 17 20 -10 11
-22 10 -24 -8 -22 -12 1 -23 -5 -25 -13 -4 -13 -3 -13 6 0 6 8 11 10 11 4 0
-8 38 -12 58 -5 1 1 -6 11 -18 23 -11 12 -20 28 -20 35 0 14 -22 18 -33 6z"/>
<path d="M1960 3144 c0 -5 7 -18 15 -28 12 -16 15 -17 15 -4 0 8 -7 21 -15 28
-8 7 -15 9 -15 4z"/>
<path d="M2037 3137 c-12 -8 -14 -16 -7 -27 8 -13 10 -13 10 2 0 9 6 18 13 21
6 2 9 7 6 11 -3 3 -13 0 -22 -7z"/>
<path d="M2072 3128 c2 -6 10 -13 16 -14 7 -1 8 0 2 3 -5 2 -8 9 -4 14 3 5 0
9 -6 9 -7 0 -10 -5 -8 -12z"/>
<path d="M2050 3105 c0 -8 -4 -15 -10 -15 -5 0 -10 -4 -10 -8 0 -5 7 -9 15 -9
8 0 15 7 15 14 0 9 5 11 13 7 8 -5 8 -2 -2 9 -17 21 -21 21 -21 2z"/>
<path d="M2082 3084 c-7 -8 -8 -14 -3 -14 10 0 25 19 20 25 -2 1 -10 -3 -17
-11z"/>
<path d="M1930 3029 c0 -5 -4 -7 -10 -4 -6 4 -10 -7 -10 -24 0 -33 0 -33 43
-36 25 -2 27 1 27 36 0 35 -3 39 -25 39 -14 0 -25 -5 -25 -11z m37 -30 c2 -22
2 -22 -6 -4 -9 19 -10 19 -10 -4 -1 -19 -4 -21 -16 -11 -11 9 -12 16 -2 31 15
25 31 19 34 -12z"/>
<path d="M2030 3030 c0 -5 7 -7 15 -4 8 4 15 8 15 10 0 2 -7 4 -15 4 -8 0 -15
-4 -15 -10z"/>
<path d="M2063 3025 c-7 -8 -13 -19 -13 -24 0 -16 31 -42 41 -35 6 3 2 12 -8
19 -14 11 -16 16 -5 26 13 14 16 29 5 29 -5 -1 -14 -7 -20 -15z"/>
<path d="M2032 2985 c0 -16 2 -22 5 -12 2 9 2 23 0 30 -3 6 -5 -1 -5 -18z"/>
<path d="M3407 3089 c-16 -16 -24 -29 -19 -29 11 0 57 48 51 54 -2 2 -17 -9
-32 -25z"/>
<path d="M3090 3105 c0 -5 9 -21 20 -35 11 -14 20 -20 20 -15 0 6 -9 21 -20
35 -11 14 -20 21 -20 15z"/>
<path d="M3414 3004 c-18 -14 -18 -15 4 -4 12 6 22 13 22 15 0 8 -5 6 -26 -11z"/>
<path d="M3100 2999 c0 -5 9 -9 20 -9 11 0 20 2 20 4 0 2 -9 6 -20 9 -11 3
-20 1 -20 -4z"/>
<path d="M3397 2920 c3 -11 7 -20 9 -20 2 0 4 9 4 20 0 11 -4 20 -9 20 -5 0
-7 -9 -4 -20z"/>
<path d="M3412 2860 c0 -14 2 -19 5 -12 2 6 2 18 0 25 -3 6 -5 1 -5 -13z"/>
<path d="M3647 2589 c-20 -17 -37 -38 -37 -48 0 -9 30 -49 66 -89 58 -64 70
-73 97 -70 38 4 72 46 63 80 -6 25 -126 158 -142 158 -5 0 -26 -14 -47 -31z"/>
<path d="M1880 2235 c0 -168 1 -175 20 -175 18 0 20 7 20 80 l0 80 90 0 90 0
0 -80 c0 -79 0 -80 25 -80 l25 0 0 175 0 175 -25 0 c-24 0 -25 -2 -25 -75 l0
-75 -90 0 -90 0 0 75 c0 68 -2 75 -20 75 -19 0 -20 -7 -20 -175z"/>
<path d="M2293 2390 c-48 -29 -67 -73 -67 -155 0 -121 52 -180 151 -172 87 6
123 57 123 172 0 77 -17 123 -55 153 -36 29 -108 30 -152 2z m138 -46 c27 -29
38 -131 20 -186 -26 -78 -144 -82 -171 -5 -15 45 -12 134 6 173 27 56 101 65
145 18z"/>
<path d="M2587 2404 c-4 -4 -7 -83 -7 -176 l0 -168 26 0 26 0 -3 125 c-2 68
-1 127 2 130 3 2 28 -52 56 -123 68 -172 72 -172 143 5 l55 138 3 -137 c2
-130 4 -138 22 -138 19 0 20 8 20 175 l0 175 -28 0 c-27 0 -31 -6 -81 -132
-29 -73 -56 -136 -60 -141 -4 -4 -32 55 -62 130 -48 122 -58 138 -80 141 -14
2 -28 0 -32 -4z"/>
<path d="M3020 2235 l0 -175 110 0 c103 0 110 1 110 20 0 18 -7 20 -85 20
l-85 0 0 60 0 60 75 0 c68 0 75 2 75 20 0 18 -7 20 -75 20 l-75 0 0 55 0 55
85 0 c78 0 85 2 85 20 0 19 -7 20 -110 20 l-110 0 0 -175z"/>
<path d="M1240 2220 c0 -6 97 -10 270 -10 173 0 270 4 270 10 0 6 -97 10 -270
10 -173 0 -270 -4 -270 -10z"/>
<path d="M3325 2210 c-4 -7 88 -10 270 -10 182 0 274 3 270 10 -4 6 -105 10
-270 10 -165 0 -266 -4 -270 -10z"/>
<path d="M996 1843 c-16 -70 -13 -90 8 -60 17 22 45 22 62 0 21 -29 24 -10 10
58 -11 57 -15 64 -38 67 -25 3 -27 -1 -42 -65z m54 12 c4 -35 0 -44 -15 -39
-16 6 -19 31 -9 59 8 19 21 8 24 -20z"/>
<path d="M1280 1840 c0 -56 3 -70 15 -70 11 0 15 14 16 58 l1 57 12 -55 c9
-45 15 -56 34 -58 21 -3 22 0 22 68 0 52 -3 71 -12 68 -7 -3 -13 -21 -13 -41
-2 -53 -12 -55 -19 -2 -6 39 -10 45 -32 45 -23 0 -24 -2 -24 -70z"/>
<path d="M1588 1900 c19 -8 22 -16 22 -70 0 -33 4 -60 10 -60 6 0 10 27 10 60
0 54 3 62 23 70 17 7 10 9 -33 9 -43 0 -50 -2 -32 -9z"/>
<path d="M1862 1843 c2 -42 8 -68 16 -71 9 -3 12 15 12 67 0 57 -3 71 -15 71
-13 0 -15 -12 -13 -67z"/>
<path d="M2320 1841 c0 -41 4 -71 10 -71 6 0 10 26 11 58 0 61 12 52 24 -20 4
-29 11 -38 25 -38 18 0 20 7 20 70 0 40 -4 70 -10 70 -5 0 -10 -23 -10 -52 0
-60 -7 -59 -18 3 -6 35 -12 45 -30 47 -21 3 -22 0 -22 -67z"/>
<path d="M2610 1856 c0 -36 5 -60 16 -70 18 -19 45 -21 62 -4 14 14 16 128 2
128 -5 0 -10 -25 -10 -55 0 -41 -4 -57 -15 -62 -23 -8 -28 1 -33 62 -6 71 -22
71 -22 1z"/>
<path d="M2900 1840 c0 -40 4 -70 10 -70 6 0 10 30 10 70 0 40 -4 70 -10 70
-6 0 -10 -30 -10 -70z"/>
<path d="M3127 1903 c-18 -17 -6 -51 22 -63 16 -6 32 -18 35 -26 8 -20 -21
-29 -39 -14 -20 17 -32 5 -15 -15 16 -19 54 -19 70 0 17 20 9 48 -18 61 -38
19 -48 32 -34 46 9 9 16 8 30 -5 21 -19 38 -11 21 10 -12 13 -61 18 -72 6z"/>
<path d="M3410 1840 c0 -40 4 -70 10 -70 6 0 10 30 10 70 0 40 -4 70 -10 70
-6 0 -10 -30 -10 -70z"/>
<path d="M3620 1846 c0 -36 5 -68 11 -71 17 -11 77 4 83 21 3 8 0 24 -7 35
-10 16 -9 21 2 28 10 7 11 13 2 30 -9 16 -21 21 -51 21 l-40 0 0 -64z m65 28
c0 -26 -31 -30 -38 -5 -5 20 8 32 28 27 6 -2 10 -11 10 -22z m-11 -40 c26 -10
20 -44 -8 -44 -19 0 -22 4 -18 25 5 28 4 27 26 19z"/>
<path d="M3912 1843 l3 -68 33 -3 c18 -2 32 1 32 7 0 6 -10 11 -22 11 -22 0
-23 3 -20 60 3 50 1 60 -13 60 -13 0 -15 -10 -13 -67z"/>
<path d="M4180 1840 l0 -70 40 0 c22 0 40 5 40 10 0 6 -14 10 -31 10 -25 0
-30 3 -27 22 2 11 11 22 21 24 31 4 32 14 3 14 -23 0 -27 4 -24 22 2 16 12 25
33 29 27 6 26 7 -12 8 l-43 1 0 -70z"/>
<path d="M2080 1842 c0 -4 9 -8 20 -9 11 -1 20 2 20 8 0 5 -9 9 -20 9 -11 0
-20 -4 -20 -8z"/>
</g>
</svg>
